<?xml version="1.0" standalone="no"?><svg xmlns="http://www.w3.org/2000/svg" viewBox="0 0 1440 320"><path fill="#ffc800" fill-opacity="1" d="M0,288L30,250.7C60,213,120,139,180,112C240,85,300,107,360,138.7C420,171,480,213,540,240C600,267,660,277,720,282.7C780,288,840,288,900,261.3C960,235,1020,181,1080,138.7C1140,96,1200,64,1260,48C1320,32,1380,32,1410,32L1440,32L1440,320L1410,320C1380,320,1320,320,1260,320C1200,320,1140,320,1080,320C1020,320,960,320,900,320C840,320,780,320,720,320C660,320,600,320,540,320C480,320,420,320,360,320C300,320,240,320,180,320C120,320,60,320,30,320L0,320Z"></path></svg>